<?xml version="1.0" encoding="UTF-8"?>
<svg width="12px" height="8px" viewBox="0 0 12 8" version="1.1" xmlns="http://www.w3.org/2000/svg" xmlns:xlink="http://www.w3.org/1999/xlink">
    <!-- Generator: Sketch 43.2 (39069) - http://www.bohemiancoding.com/sketch -->
    <title>nav_down_arrow</title>
    <desc>Created with Sketch.</desc>
    <defs></defs>
    <g id="Page-1" stroke="none" stroke-width="1" fill="none" fill-rule="evenodd">
        <g id="nav_down_arrow" fill="#1D3E66">
            <path d="M6.125,4.70619233 L2.70817069,1.28936302 C2.32350896,0.904701292 1.68645514,0.901065022 1.29577507,1.2917451 C0.902371244,1.68514892 0.904028502,2.31477623 1.29339299,2.70414072 L5.0211493,6.43189702 C5.05800532,6.62058696 5.14995012,6.80117879 5.29737068,6.94859935 C5.5230746,7.17430327 5.83100849,7.26839974 6.125,7.23345152 C6.41899151,7.26839974 6.7269254,7.17430327 6.95262932,6.94859935 C7.10004988,6.80117879 7.19199468,6.62058696 7.2288507,6.43189702 L10.956607,2.70414072 C11.3459715,2.31477623 11.3476288,1.68514892 10.9542249,1.2917451 C10.5635449,0.901065022 9.92649104,0.904701292 9.54182931,1.28936302 L6.125,4.70619233 Z" id="Combined-Shape-Copy"></path>
        </g>
    </g>
</svg>
