<?xml version="1.0" encoding="UTF-8" standalone="no"?>
<svg width="44px" height="44px" viewBox="0 0 44 44" version="1.1" xmlns="http://www.w3.org/2000/svg" xmlns:xlink="http://www.w3.org/1999/xlink">
    <!-- Generator: Sketch 46.1 (44463) - http://www.bohemiancoding.com/sketch -->
    <title>LinkedIn</title>
    <desc>Created with Sketch.</desc>
    <defs></defs>
    <g id="govCMS-Theme" stroke="none" stroke-width="1" fill="none" fill-rule="evenodd">
        <g id="MU_DESKTOP-01-A-HOMEPAGE-v1" transform="translate(-757.000000, -2210.000000)" fill="#FFFFFF">
            <g id="Group-3" transform="translate(0.000000, 2122.000000)">
                <g id="Footer" transform="translate(0.000000, 9.000000)">
                    <g id="Connect" transform="translate(0.000000, 41.000000)">
                        <g id="Icons" transform="translate(379.000000, 38.000000)">
                            <g id="LinkedIn" transform="translate(378.000000, 0.000000)">
                                <path d="M22,44 C9.86895049,44 0,34.1309245 0,22.0002787 C0,9.86907552 9.86895049,0 22,0 C34.1310495,0 44,9.86907552 44,22.0002787 C44,34.1309245 34.1310495,44 22,44 L22,44 Z M22,1.67234673 C10.7909593,1.67234673 1.67232555,10.791096 1.67232555,22.0002787 C1.67232555,33.208904 10.7909593,42.3276533 22,42.3276533 C33.2084833,42.3276533 42.3276745,33.208904 42.3276745,22.0002787 C42.3276745,10.791096 33.2084833,1.67234673 22,1.67234673 L22,1.67234673 Z" id="Google+-Circle"></path>
                                <path d="M34,32.9090909 L28.6956726,32.9090909 L28.6956726,25.2391275 C28.6956726,23.2315251 27.8659454,21.8609906 26.0413923,21.8609906 C24.6458137,21.8609906 23.8697084,22.7858569 23.5084666,23.6771933 C23.3730009,23.9971243 23.3941675,24.4427925 23.3941675,24.8884607 L23.3941675,32.9090909 L18.1392286,32.9090909 C18.1392286,32.9090909 18.2069614,19.3224982 18.1392286,18.0874804 L23.3941675,18.0874804 L23.3941675,20.4136169 C23.7046096,19.3965434 25.3838194,17.9449784 28.0634995,17.9449784 C31.3880527,17.9449784 34,20.0769208 34,24.6677222 L34,32.9090909 L34,32.9090909 Z M12.8250235,16.2335567 L12.7911571,16.2335567 C11.0978363,16.2335567 10,15.1005257 10,13.6643285 C10,12.2001898 11.1302916,11.0909091 12.8574788,11.0909091 C14.5832549,11.0909091 15.6444026,12.1973956 15.678269,13.6601373 C15.678269,15.0963344 14.5832549,16.2335567 12.8250235,16.2335567 L12.8250235,16.2335567 L12.8250235,16.2335567 Z M10.6053622,18.0874804 L15.2831609,18.0874804 L15.2831609,32.9090909 L10.6053622,32.9090909 L10.6053622,18.0874804 L10.6053622,18.0874804 Z"></path>
                            </g>
                        </g>
                    </g>
                </g>
            </g>
        </g>
    </g>
</svg>