<?xml version="1.0" encoding="UTF-8" standalone="no"?>
<svg width="44px" height="44px" viewBox="0 0 44 44" version="1.1" xmlns="http://www.w3.org/2000/svg" xmlns:xlink="http://www.w3.org/1999/xlink">
    <!-- Generator: Sketch 45.2 (43514) - http://www.bohemiancoding.com/sketch -->
    <title>Facebook</title>
    <desc>Created with Sketch.</desc>
    <defs></defs>
    <g id="govCMS-Theme" stroke="none" stroke-width="1" fill="none" fill-rule="evenodd">
        <g id="MU_DESKTOP-01-A-HOMEPAGE-v1" transform="translate(-433.000000, -2210.000000)" fill="#FFF">
            <g id="Group-3" transform="translate(0.000000, 2122.000000)">
                <g id="Footer" transform="translate(0.000000, 9.000000)">
                    <g id="Connect" transform="translate(0.000000, 41.000000)">
                        <g id="Icons" transform="translate(379.000000, 38.000000)">
                            <g id="Facebook" transform="translate(54.000000, 0.000000)">
                                <path d="M22,44 C9.86895049,44 0,34.1309245 0,22.0002787 C0,9.86907552 9.86895049,0 22,0 C34.1310495,0 44,9.86907552 44,22.0002787 C44,34.1309245 34.1310495,44 22,44 L22,44 Z M22,1.67234673 C10.7909593,1.67234673 1.67232555,10.791096 1.67232555,22.0002787 C1.67232555,33.208904 10.7909593,42.3276533 22,42.3276533 C33.2084833,42.3276533 42.3276745,33.208904 42.3276745,22.0002787 C42.3276745,10.791096 33.2084833,1.67234673 22,1.67234673 L22,1.67234673 Z" id="Facebook-Circle"></path>
                                <path d="M33,31.785868 C33,32.4564572 32.4564572,33 31.785868,33 L26.1796464,33 L26.1796464,24.4807006 L29.0393887,24.4807006 L29.4678707,21.1601155 L26.1796464,21.1601155 L26.1796464,19.0404783 C26.1796464,18.0792406 26.4469233,17.4242325 27.8252567,17.4242325 L29.5835308,17.423034 L29.5835308,14.4536243 C29.2796982,14.4128735 28.2357604,14.3229822 27.0216284,14.3229822 C24.4866934,14.3229822 22.7511917,15.8703114 22.7511917,18.7114761 L22.7511917,21.1601155 L19.8842581,21.1601155 L19.8842581,24.4807006 L22.7511917,24.4807006 L22.7511917,33 L12.214132,33 C11.5435428,33 11,32.4564572 11,31.785868 L11,12.214132 C11,11.5435428 11.5435428,11 12.214132,11 L31.785868,11 C32.4564572,11 33,11.5435428 33,12.214132 L33,31.785868"></path>
                            </g>
                        </g>
                    </g>
                </g>
            </g>
        </g>
    </g>
</svg>
