<?xml version="1.0" encoding="UTF-8" standalone="no"?>
<svg width="44px" height="44px" viewBox="0 0 44 44" version="1.1" xmlns="http://www.w3.org/2000/svg" xmlns:xlink="http://www.w3.org/1999/xlink">
    <!-- Generator: Sketch 46.1 (44463) - http://www.bohemiancoding.com/sketch -->
    <title>Vimeo</title>
    <desc>Created with Sketch.</desc>
    <defs></defs>
    <g id="govCMS-Theme" stroke="none" stroke-width="1" fill="none" fill-rule="evenodd">
        <g id="MU_DESKTOP-01-A-HOMEPAGE-v1" transform="translate(-649.000000, -2210.000000)" fill="#FFF">
            <g id="Group-3" transform="translate(0.000000, 2122.000000)">
                <g id="Footer" transform="translate(0.000000, 9.000000)">
                    <g id="Connect" transform="translate(0.000000, 41.000000)">
                        <g id="Icons" transform="translate(379.000000, 38.000000)">
                            <g id="Vimeo" transform="translate(270.000000, 0.000000)">
                                <path d="M22,44 C9.86895049,44 0,34.1309245 0,22.0002787 C0,9.86907552 9.86895049,0 22,0 C34.1310495,0 44,9.86907552 44,22.0002787 C44,34.1309245 34.1310495,44 22,44 L22,44 Z M22,1.67234673 C10.7909593,1.67234673 1.67232555,10.791096 1.67232555,22.0002787 C1.67232555,33.208904 10.7909593,42.3276533 22,42.3276533 C33.2084833,42.3276533 42.3276745,33.208904 42.3276745,22.0002787 C42.3276745,10.791096 33.2084833,1.67234673 22,1.67234673 L22,1.67234673 Z" id="Google+-Circle"></path>
                                <path d="M33.9879254,16.9896644 C33.8835012,19.3000069 32.249404,22.4582201 29.096923,26.4657006 C25.8343732,30.6561648 23.069955,32.75 20.8107239,32.75 C19.4136979,32.75 18.2297536,31.4760989 17.2631244,28.9199158 C16.6154123,26.5746527 15.9719337,24.2293896 15.3256327,21.8911106 C14.6059526,19.3335306 13.8354716,18.0554391 13.0113673,18.0554391 C12.8321528,18.0554391 12.207019,18.4283904 11.12891,19.1756898 L10,17.735567 C11.1825332,16.7089033 12.3481327,15.6780491 13.4982097,14.6499886 C15.0730391,13.3006591 16.2569834,12.5924707 17.0472204,12.5184391 C18.9099218,12.339646 20.0585877,13.6009757 20.4918069,16.2982378 C20.9532488,19.2106104 21.2778104,21.0208909 21.4570249,21.7304761 C21.9960794,24.1441835 22.5859348,25.3482435 23.2322358,25.3482435 C23.7331896,25.3482435 24.486737,24.5688172 25.4914668,23.0085677 C26.4961967,21.4455246 27.0310178,20.2582264 27.1043969,19.4396891 C27.2483329,18.0903596 26.7106896,17.4198853 25.4914668,17.4198853 C24.9171339,17.4198853 24.3244562,17.540012 23.7162559,17.7914398 C24.9016114,13.9934825 27.1594313,12.1468846 30.4953602,12.2544399 C32.9662619,12.3228841 34.1332725,13.9040859 33.9879254,16.9896644"></path>
                            </g>
                        </g>
                    </g>
                </g>
            </g>
        </g>
    </g>
</svg>
