<?xml version="1.0" encoding="UTF-8" standalone="no"?>
<svg width="44px" height="44px" viewBox="0 0 44 44" version="1.1" xmlns="http://www.w3.org/2000/svg" xmlns:xlink="http://www.w3.org/1999/xlink">
    <!-- Generator: Sketch 45.2 (43514) - http://www.bohemiancoding.com/sketch -->
    <title>YouTube</title>
    <desc>Created with Sketch.</desc>
    <defs></defs>
    <g id="govCMS-Theme" stroke="none" stroke-width="1" fill="none" fill-rule="evenodd">
        <g id="MU_DESKTOP-01-A-HOMEPAGE-v1" transform="translate(-595.000000, -2210.000000)" fill="#FFF">
            <g id="Group-3" transform="translate(0.000000, 2122.000000)">
                <g id="Footer" transform="translate(0.000000, 9.000000)">
                    <g id="Connect" transform="translate(0.000000, 41.000000)">
                        <g id="Icons" transform="translate(379.000000, 38.000000)">
                            <g id="YouTube" transform="translate(216.000000, 0.000000)">
                                <path d="M22,44 C9.86895049,44 0,34.1309245 0,22.0002787 C0,9.86907552 9.86895049,0 22,0 C34.1310495,0 44,9.86907552 44,22.0002787 C44,34.1309245 34.1310495,44 22,44 L22,44 Z M22,1.67234673 C10.7909593,1.67234673 1.67232555,10.791096 1.67232555,22.0002787 C1.67232555,33.208904 10.7909593,42.3276533 22,42.3276533 C33.2084833,42.3276533 42.3276745,33.208904 42.3276745,22.0002787 C42.3276745,10.791096 33.2084833,1.67234673 22,1.67234673 L22,1.67234673 Z" id="Google+-Circle"></path>
                                <path d="M19.522,24.634958 L19.52125,17.8438708 L26.00575,21.2511219 L19.522,24.634958 Z M33.76,16.6670814 C33.76,16.6670814 33.52525,15.0015995 32.806,14.2681832 C31.89325,13.3051495 30.87025,13.3006176 30.4015,13.2447239 C27.043,13 22.00525,13 22.00525,13 L21.99475,13 C21.99475,13 16.957,13 13.5985,13.2447239 C13.129,13.3006176 12.10675,13.3051495 11.19325,14.2681832 C10.474,15.0015995 10.24,16.6670814 10.24,16.6670814 C10.24,16.6670814 10,18.6233616 10,20.5788866 L10,22.4128049 C10,24.3690852 10.24,26.3246101 10.24,26.3246101 C10.24,26.3246101 10.474,27.990092 11.19325,28.7235082 C12.10675,29.686542 13.306,29.6563291 13.84,29.7567868 C15.76,29.9425956 22,30 22,30 C22,30 27.043,29.9924468 30.4015,29.7477229 C30.87025,29.6910739 31.89325,29.686542 32.806,28.7235082 C33.52525,27.990092 33.76,26.3246101 33.76,26.3246101 C33.76,26.3246101 34,24.3690852 34,22.4128049 L34,20.5788866 C34,18.6233616 33.76,16.6670814 33.76,16.6670814 L33.76,16.6670814 Z" id="Youtube"></path>
                            </g>
                        </g>
                    </g>
                </g>
            </g>
        </g>
    </g>
</svg>
