<?xml version="1.0" encoding="UTF-8" standalone="no"?>
<svg width="44px" height="44px" viewBox="0 0 44 44" version="1.1" xmlns="http://www.w3.org/2000/svg" xmlns:xlink="http://www.w3.org/1999/xlink">
    <!-- Generator: Sketch 46.1 (44463) - http://www.bohemiancoding.com/sketch -->
    <title>Instagram</title>
    <desc>Created with Sketch.</desc>
    <defs></defs>
    <g id="govCMS-Theme" stroke="none" stroke-width="1" fill="none" fill-rule="evenodd">
        <g id="MU_DESKTOP-01-A-HOMEPAGE-v1" transform="translate(-541.000000, -2210.000000)" fill="#FFFFFF">
            <g id="Group-3" transform="translate(0.000000, 2122.000000)">
                <g id="Footer" transform="translate(0.000000, 9.000000)">
                    <g id="Connect" transform="translate(0.000000, 41.000000)">
                        <g id="Icons" transform="translate(379.000000, 38.000000)">
                            <g id="Instagram" transform="translate(162.000000, 0.000000)">
                                <path d="M22,44 C9.86895049,44 0,34.1309245 0,22.0002787 C0,9.86907552 9.86895049,0 22,0 C34.1310495,0 44,9.86907552 44,22.0002787 C44,34.1309245 34.1310495,44 22,44 L22,44 Z M22,1.67234673 C10.7909593,1.67234673 1.67232555,10.791096 1.67232555,22.0002787 C1.67232555,33.208904 10.7909593,42.3276533 22,42.3276533 C33.2084833,42.3276533 42.3276745,33.208904 42.3276745,22.0002787 C42.3276745,10.791096 33.2084833,1.67234673 22,1.67234673 L22,1.67234673 Z" id="Google+-Circle"></path>
                                <path d="M22.0000238,10 C25.2590043,10 25.6676571,10.0138139 26.9475847,10.0722133 C28.2248447,10.1304697 29.0971676,10.3333433 29.860456,10.6300083 C30.6495621,10.9366288 31.3187732,11.3469487 31.985936,12.014064 C32.6530513,12.6812268 33.0633712,13.3504379 33.3700394,14.139544 C33.6666567,14.9028324 33.8695303,15.7751553 33.9277867,17.0524153 C33.9861861,18.3323429 34,18.7409957 34,22.0000238 C34,25.2590043 33.9861861,25.6676571 33.9277867,26.9475847 C33.8695303,28.2248447 33.6666567,29.0971676 33.3700394,29.860456 C33.0633712,30.6495621 32.6530513,31.3187732 31.985936,31.985936 C31.3187732,32.6530513 30.6495621,33.0633712 29.860456,33.3700394 C29.0971676,33.6666567 28.2248447,33.8695303 26.9475847,33.9277867 C25.6676571,33.9861861 25.2590043,34 22.0000238,34 C18.7409957,34 18.3323429,33.9861861 17.0524153,33.9277867 C15.7751553,33.8695303 14.9028324,33.6666567 14.139544,33.3700394 C13.3504379,33.0633712 12.6812268,32.6530513 12.014064,31.985936 C11.3469487,31.3187732 10.9366288,30.6495621 10.6300083,29.860456 C10.3333433,29.0971676 10.1304697,28.2248447 10.0722133,26.9475847 C10.0138139,25.6676571 10,25.2590043 10,22.0000238 C10,18.7409957 10.0138139,18.3323429 10.0722133,17.0524153 C10.1304697,15.7751553 10.3333433,14.9028324 10.6300083,14.139544 C10.9366288,13.3504379 11.3469487,12.6812268 12.014064,12.014064 C12.6812268,11.3469487 13.3504379,10.9366288 14.139544,10.6300083 C14.9028324,10.3333433 15.7751553,10.1304697 17.0524153,10.0722133 C18.3323429,10.0138139 18.7409957,10 22.0000238,10 Z M22.0000238,12.1621583 C18.7958701,12.1621583 18.4163218,12.1744003 17.1509702,12.2321328 C15.9809821,12.2854829 15.3455912,12.4809732 14.9227435,12.6453107 C14.3626144,12.8629984 13.9628692,13.1230329 13.5429749,13.5429749 C13.1230329,13.9628692 12.8629984,14.3626144 12.6453107,14.9227435 C12.4809732,15.3455912 12.2854829,15.9809821 12.2321328,17.1509702 C12.1744003,18.4163218 12.1621583,18.7958701 12.1621583,22.0000238 C12.1621583,25.2041299 12.1744003,25.5836782 12.2321328,26.8490298 C12.2854829,28.0190179 12.4809732,28.6544088 12.6453107,29.0772565 C12.8629984,29.6373856 13.1230805,30.0371308 13.5429749,30.4570251 C13.9628692,30.8769671 14.3626144,31.1370016 14.9227435,31.3546893 C15.3455912,31.5190268 15.9809821,31.7145171 17.1509702,31.7678672 C18.4161789,31.8255997 18.795632,31.8378417 22.0000238,31.8378417 C25.204368,31.8378417 25.5838687,31.8255997 26.8490298,31.7678672 C28.0190179,31.7145171 28.6544088,31.5190268 29.0772565,31.3546893 C29.6373856,31.1370016 30.0371308,30.8769671 30.4570251,30.4570251 C30.8769671,30.0371308 31.1370016,29.6373856 31.3546893,29.0772565 C31.5190268,28.6544088 31.7145171,28.0190179 31.7678672,26.8490298 C31.8255997,25.5836782 31.8378417,25.2041299 31.8378417,22.0000238 C31.8378417,18.7958701 31.8255997,18.4163218 31.7678672,17.1509702 C31.7145171,15.9809821 31.5190268,15.3455912 31.3546893,14.9227435 C31.1370016,14.3626144 30.8769671,13.9628692 30.4570251,13.5429749 C30.0371308,13.1230329 29.6373856,12.8629984 29.0772565,12.6453107 C28.6544088,12.4809732 28.0190179,12.2854829 26.8490298,12.2321328 C25.5836782,12.1744003 25.2041299,12.1621583 22.0000238,12.1621583 Z M22.0000238,15.8378417 C25.4032879,15.8378417 28.1621583,18.5967121 28.1621583,22.0000238 C28.1621583,25.4032879 25.4032879,28.1621583 22.0000238,28.1621583 C18.5967121,28.1621583 15.8378417,25.4032879 15.8378417,22.0000238 C15.8378417,18.5967121 18.5967121,15.8378417 22.0000238,15.8378417 Z M22.0000238,26 C24.2091493,26 26,24.2091493 26,22.0000238 C26,19.7908507 24.2091493,18 22.0000238,18 C19.7908507,18 18,19.7908507 18,22.0000238 C18,24.2091493 19.7908507,26 22.0000238,26 Z M29.8456418,15.5943839 C29.8456418,16.3896825 29.2009146,17.034362 28.4056161,17.034362 C27.6103652,17.034362 26.965638,16.3896825 26.965638,15.5943839 C26.965638,14.7990854 27.6103652,14.1543582 28.4056161,14.1543582 C29.2009146,14.1543582 29.8456418,14.7990854 29.8456418,15.5943839 Z"></path>
                            </g>
                        </g>
                    </g>
                </g>
            </g>
        </g>
    </g>
</svg>