<svg width="44" height="44" viewBox="0 0 44 44" xmlns="http://www.w3.org/2000/svg"><title>Instagram</title><g fill="#FFF" fill-rule="evenodd"><path d="M22 44C9.869 44 0 34.13 0 22S9.869 0 22 0s22 9.87 22 22-9.869 22-22 22zm0-42.328C10.791 1.672 1.672 10.792 1.672 22c0 11.209 9.119 20.328 20.328 20.328 11.208 0 20.328-9.12 20.328-20.328 0-11.209-9.12-20.328-20.328-20.328z"/><path d="M22 10c3.259 0 3.668.014 4.948.072 1.277.058 2.15.261 2.912.558.79.307 1.459.717 2.126 1.384a5.883 5.883 0 0 1 1.384 2.126c.297.763.5 1.635.558 2.912.058 1.28.072 1.689.072 4.948 0 3.259-.014 3.668-.072 4.948-.058 1.277-.261 2.15-.558 2.912a5.883 5.883 0 0 1-1.384 2.126 5.883 5.883 0 0 1-2.126 1.384c-.763.297-1.635.5-2.912.558-1.28.058-1.689.072-4.948.072-3.259 0-3.668-.014-4.948-.072-1.277-.058-2.15-.261-2.912-.558a5.883 5.883 0 0 1-2.126-1.384 5.882 5.882 0 0 1-1.384-2.126c-.297-.763-.5-1.635-.558-2.912C10.014 25.668 10 25.259 10 22c0-3.259.014-3.668.072-4.948.058-1.277.261-2.15.558-2.912a5.882 5.882 0 0 1 1.384-2.126 5.882 5.882 0 0 1 2.126-1.384c.763-.297 1.635-.5 2.912-.558C18.332 10.014 18.741 10 22 10zm0 2.162c-3.204 0-3.584.012-4.849.07-1.17.053-1.805.249-2.228.413-.56.218-.96.478-1.38.898-.42.42-.68.82-.898 1.38-.164.423-.36 1.058-.413 2.228-.058 1.265-.07 1.645-.07 4.849s.012 3.584.07 4.849c.053 1.17.249 1.805.413 2.228.218.56.478.96.898 1.38.42.42.82.68 1.38.898.423.164 1.058.36 2.228.413 1.265.058 1.645.07 4.849.07s3.584-.012 4.849-.07c1.17-.053 1.805-.249 2.228-.413.56-.218.96-.478 1.38-.898.42-.42.68-.82.898-1.38.164-.423.36-1.058.413-2.228.058-1.265.07-1.645.07-4.849s-.012-3.584-.07-4.849c-.053-1.17-.249-1.805-.413-2.228a3.717 3.717 0 0 0-.898-1.38c-.42-.42-.82-.68-1.38-.898-.423-.164-1.058-.36-2.228-.413-1.265-.058-1.645-.07-4.849-.07zm0 3.676a6.162 6.162 0 1 1 0 12.324 6.162 6.162 0 0 1 0-12.324zM22 26a4 4 0 1 0 0-8 4 4 0 0 0 0 8zm7.846-10.406a1.44 1.44 0 1 1-2.88 0 1.44 1.44 0 0 1 2.88 0z"/></g></svg>