<svg width="44" height="44" viewBox="0 0 44 44" xmlns="http://www.w3.org/2000/svg"><title>Flikr</title><g fill="#FFF" fill-rule="evenodd"><path d="M22 44C9.869 44 0 34.13 0 22S9.869 0 22 0s22 9.87 22 22-9.869 22-22 22zm0-42.328C10.791 1.672 1.672 10.792 1.672 22c0 11.209 9.119 20.328 20.328 20.328 11.208 0 20.328-9.12 20.328-20.328 0-11.209-9.12-20.328-20.328-20.328z"/><path d="M33.913 21.327c0 2.942-2.355 5.328-5.266 5.328-2.913 0-5.27-2.386-5.27-5.328 0-2.94 2.357-5.327 5.27-5.327 2.91 0 5.266 2.386 5.266 5.327M20.534 21.327c0 2.942-2.356 5.328-5.27 5.328-2.909 0-5.264-2.386-5.264-5.328C10 18.387 12.355 16 15.264 16c2.914 0 5.27 2.386 5.27 5.327"/></g></svg>