<svg width="44" height="44" viewBox="0 0 44 44" xmlns="http://www.w3.org/2000/svg"><title>Email</title><g fill="#FFF" fill-rule="evenodd"><path d="M22 44C9.869 44 0 34.13 0 22S9.869 0 22 0s22 9.87 22 22-9.869 22-22 22zm0-42.328C10.791 1.672 1.672 10.792 1.672 22c0 11.209 9.119 20.328 20.328 20.328 11.208 0 20.328-9.12 20.328-20.328 0-11.209-9.12-20.328-20.328-20.328z"/><path d="M31.884 27.82a.495.495 0 0 1-.704.06l-6-5a.495.495 0 0 1-.064-.7.498.498 0 0 1 .704-.06l6 5c.212.17.241.49.064.7zM22 23.02c-.55 0-1.101-.17-1.581-.5l-8.201-5.61a.494.494 0 0 1-.131-.69.494.494 0 0 1 .695-.13l8.201 5.61a1.8 1.8 0 0 0 2.034 0l8.201-5.61c.228-.16.54-.1.695.13.155.23.097.54-.131.69l-8.201 5.61c-.48.33-1.031.5-1.581.5zm-3.18-.14l-6 5a.495.495 0 0 1-.704-.06.495.495 0 0 1 .064-.7l6-5a.498.498 0 0 1 .704.06c.177.21.148.53-.064.7zM31.5 14h-19c-1.378 0-2.5 1.12-2.5 2.5v11c0 1.38 1.122 2.5 2.5 2.5h19c1.378 0 2.5-1.12 2.5-2.5v-11c0-1.38-1.122-2.5-2.5-2.5z"/></g></svg>