<svg width="44" height="44" viewBox="0 0 44 44" xmlns="http://www.w3.org/2000/svg"><title>Twitter</title><g fill="#FFF" fill-rule="evenodd"><path d="M22 44C9.87 44 0 34.13 0 22S9.87 0 22 0c12.131 0 22 9.87 22 22s-9.869 22-22 22zm0-42.328C10.792 1.672 1.672 10.792 1.672 22c0 11.209 9.12 20.328 20.328 20.328 11.209 0 20.328-9.12 20.328-20.328 0-11.209-9.119-20.328-20.328-20.328z"/><path d="M33.366 13.351c-.913.55-1.921.949-2.999 1.162A4.673 4.673 0 0 0 26.923 13c-2.604 0-4.717 2.148-4.717 4.796 0 .376.04.741.122 1.093-3.922-.2-7.398-2.108-9.727-5.014a4.85 4.85 0 0 0-.639 2.414c0 1.664.833 3.132 2.1 3.992a4.656 4.656 0 0 1-2.139-.598v.059c0 2.325 1.627 4.264 3.787 4.703a4.535 4.535 0 0 1-1.243.169c-.304 0-.601-.029-.888-.085.6 1.905 2.342 3.292 4.407 3.329a9.366 9.366 0 0 1-5.86 2.055c-.381 0-.758-.022-1.126-.066A13.218 13.218 0 0 0 18.234 32c8.68 0 13.425-7.308 13.425-13.647 0-.208-.004-.417-.012-.621A9.64 9.64 0 0 0 34 15.249a9.304 9.304 0 0 1-2.71.755 4.796 4.796 0 0 0 2.076-2.653"/></g></svg>