<svg width="44" height="44" viewBox="0 0 44 44" xmlns="http://www.w3.org/2000/svg"><title>Google</title><g fill="#FFF" fill-rule="evenodd"><path d="M22 44C9.869 44 0 34.13 0 22S9.869 0 22 0s22 9.87 22 22-9.869 22-22 22zm0-42.328C10.791 1.672 1.672 10.792 1.672 22c0 11.209 9.119 20.328 20.328 20.328 11.208 0 20.328-9.12 20.328-20.328 0-11.209-9.12-20.328-20.328-20.328z"/><path d="M18.718 20.3h7.321c.51 3.833-1.028 9.584-7.32 9.584-4.21 0-7.624-3.582-7.624-8 0-4.419 3.414-8 7.623-8 1.976 0 3.775.788 5.13 2.082-1.596 1.581-1.543 1.675-2.17 2.333-.783-.68-1.638-1.168-2.96-1.168-2.5 0-4.453 2.128-4.453 4.753 0 2.624 1.952 4.752 4.453 4.752 2.472 0 3.475-1.118 4.121-3.172-1.192 0-4.12.004-4.12.004v-3.169zm13.736.158h2.641v1.98h-2.64v2.852h-1.887v-2.852H27.85v-1.98h2.718v-2.772h1.886v2.772z"/></g></svg>