<svg width="23" height="22" viewBox="0 0 23 22" xmlns="http://www.w3.org/2000/svg"><title>Group 2</title><g fill="#057F83" fill-rule="evenodd"><path d="M18.39 9.774s.005.042.006.064l1.318-.064h2.38V.457l-3.27 3.398C16.885 1.491 13.85 0 10.636 0 4.813 0 0 4.934 0 11s4.698 11 10.521 11c4.056 0 7.784-2.467 9.525-6.285l-2.394-1.18c-1.307 2.865-4.123 4.716-7.165 4.716-4.367 0-7.922-3.702-7.922-8.25 0-4.549 3.552-8.25 7.92-8.25 2.531 0 4.782.853 6.233 2.784l-4.034 4.239h5.705z"/><path d="M10.77 13.48H8.304L7.864 15H6.038l2.524-7.82h1.95l2.53 7.82h-1.827l-.445-1.52zm-2.063-1.397h1.66L9.55 9.285h-.032l-.811 2.798z"/></g></svg>