<?xml version="1.0" encoding="UTF-8" standalone="no"?>
<svg width="44px" height="44px" viewBox="0 0 44 44" version="1.1" xmlns="http://www.w3.org/2000/svg" xmlns:xlink="http://www.w3.org/1999/xlink">
    <!-- Generator: Sketch 45.2 (43514) - http://www.bohemiancoding.com/sketch -->
    <title>Twitter</title>
    <desc>Created with Sketch.</desc>
    <defs></defs>
    <g id="govCMS-Theme" stroke="none" stroke-width="1" fill="none" fill-rule="evenodd">
        <g id="MU_DESKTOP-01-A-HOMEPAGE-v1" transform="translate(-379.000000, -2210.000000)" fill="#FFF">
            <g id="Group-3" transform="translate(0.000000, 2122.000000)">
                <g id="Footer" transform="translate(0.000000, 9.000000)">
                    <g id="Connect" transform="translate(0.000000, 41.000000)">
                        <g id="Icons" transform="translate(379.000000, 38.000000)">
                            <g id="Twitter">
                                <path d="M22,44 C9.86950793,44 0,34.1309245 0,22.0002787 C0,9.86907552 9.86950793,0 22,0 C34.1310495,0 44,9.86907552 44,22.0002787 C44,34.1309245 34.1310495,44 22,44 L22,44 Z M22,1.67234673 C10.7915167,1.67234673 1.67232555,10.791096 1.67232555,22.0002787 C1.67232555,33.208904 10.7915167,42.3276533 22,42.3276533 C33.2090407,42.3276533 42.3276745,33.208904 42.3276745,22.0002787 C42.3276745,10.791096 33.2090407,1.67234673 22,1.67234673 L22,1.67234673 Z" id="Twitter-Circle"></path>
                                <path d="M33.3656316,13.3512544 C32.4530745,13.9003556 31.4447174,14.299702 30.3669666,14.5133767 C29.5084506,13.5819743 28.2814728,13 26.9230769,13 C24.3192802,13 22.2061517,15.1477043 22.2061517,17.7964179 C22.2061517,18.1720227 22.2466825,18.5372785 22.3277441,18.8885329 C18.4060823,18.6882509 14.9296452,16.7810067 12.6009665,13.8753965 C12.1944304,14.5864279 11.9622994,15.4112973 11.9622994,16.2891288 C11.9622994,17.9528692 12.7950231,19.4211977 14.0619176,20.2813752 C13.289376,20.2582423 12.5604357,20.0403063 11.9229968,19.6829643 L11.9229968,19.742014 C11.9229968,22.0668675 13.5497557,24.006376 15.7101701,24.4452917 C15.3146877,24.5579123 14.8970977,24.6139182 14.4666115,24.6139182 C14.1626305,24.6139182 13.8660187,24.5853065 13.5786185,24.5293006 C14.1792113,26.4341098 15.9208074,27.8214732 17.9860358,27.8579988 C16.371559,29.1455256 14.3358075,29.9125629 12.1256508,29.9125629 C11.744907,29.9125629 11.3684618,29.8906475 11,29.8468168 C13.0879502,31.2055685 15.5695405,32 18.2335193,32 C26.9138654,32 31.6590393,24.6924482 31.6590393,18.3534331 C31.6590393,18.1446285 31.6553547,17.9364327 31.6473714,17.7318894 C32.56914,17.0549486 33.3699303,16.2112076 34,15.2493672 C33.1549943,15.6304508 32.2448936,15.8885649 31.2905775,16.0042293 C32.265159,15.4112973 33.0131365,14.4707635 33.3656316,13.3512544"></path>
                            </g>
                        </g>
                    </g>
                </g>
            </g>
        </g>
    </g>
</svg>
