<?xml version="1.0" encoding="UTF-8" standalone="no"?>
<svg width="44px" height="44px" viewBox="0 0 44 44" version="1.1" xmlns="http://www.w3.org/2000/svg" xmlns:xlink="http://www.w3.org/1999/xlink">
    <!-- Generator: Sketch 45.2 (43514) - http://www.bohemiancoding.com/sketch -->
    <title>Email</title>
    <desc>Created with Sketch.</desc>
    <defs></defs>
    <g id="govCMS-Theme" stroke="none" stroke-width="1" fill="none" fill-rule="evenodd">
        <g id="MU_DESKTOP-01-A-HOMEPAGE-v1" transform="translate(-865.000000, -2210.000000)" fill="#FFF">
            <g id="Group-3" transform="translate(0.000000, 2122.000000)">
                <g id="Footer" transform="translate(0.000000, 9.000000)">
                    <g id="Connect" transform="translate(0.000000, 41.000000)">
                        <g id="Icons" transform="translate(379.000000, 38.000000)">
                            <g id="Email" transform="translate(486.000000, 0.000000)">
                                <path d="M22,44 C9.86895049,44 0,34.1309245 0,22.0002787 C0,9.86907552 9.86895049,0 22,0 C34.1310495,0 44,9.86907552 44,22.0002787 C44,34.1309245 34.1310495,44 22,44 L22,44 Z M22,1.67234673 C10.7909593,1.67234673 1.67232555,10.791096 1.67232555,22.0002787 C1.67232555,33.208904 10.7909593,42.3276533 22,42.3276533 C33.2084833,42.3276533 42.3276745,33.208904 42.3276745,22.0002787 C42.3276745,10.791096 33.2084833,1.67234673 22,1.67234673 L22,1.67234673 Z" id="Google+-Circle"></path>
                                <path d="M31.884,27.82 C31.785,27.94 31.643,28 31.499,28 C31.387,28 31.273,27.96 31.18,27.88 L25.18,22.88 C24.968,22.71 24.939,22.39 25.116,22.18 C25.293,21.97 25.608,21.94 25.82,22.12 L31.82,27.12 C32.032,27.29 32.061,27.61 31.884,27.82 L31.884,27.82 Z M22,23.02 C21.45,23.02 20.899,22.85 20.419,22.52 L12.218,16.91 C11.99,16.76 11.932,16.45 12.087,16.22 C12.243,15.99 12.553,15.93 12.782,16.09 L20.983,21.7 C21.601,22.12 22.398,22.12 23.017,21.7 L31.218,16.09 C31.446,15.93 31.758,15.99 31.913,16.22 C32.068,16.45 32.01,16.76 31.782,16.91 L23.581,22.52 C23.101,22.85 22.55,23.02 22,23.02 L22,23.02 Z M18.82,22.88 L12.82,27.88 C12.727,27.96 12.613,28 12.501,28 C12.357,28 12.215,27.94 12.116,27.82 C11.939,27.61 11.968,27.29 12.18,27.12 L18.18,22.12 C18.392,21.94 18.708,21.97 18.884,22.18 C19.061,22.39 19.032,22.71 18.82,22.88 L18.82,22.88 Z M31.5,14 L12.5,14 C11.122,14 10,15.12 10,16.5 L10,27.5 C10,28.88 11.122,30 12.5,30 L31.5,30 C32.878,30 34,28.88 34,27.5 L34,16.5 C34,15.12 32.878,14 31.5,14 L31.5,14 Z" id="Fill-2444"></path>
                            </g>
                        </g>
                    </g>
                </g>
            </g>
        </g>
    </g>
</svg>
