<?xml version="1.0" encoding="UTF-8" standalone="no"?>
<svg width="44px" height="44px" viewBox="0 0 44 44" version="1.1" xmlns="http://www.w3.org/2000/svg" xmlns:xlink="http://www.w3.org/1999/xlink">
    <!-- Generator: Sketch 46.1 (44463) - http://www.bohemiancoding.com/sketch -->
    <title>Flikr</title>
    <desc>Created with Sketch.</desc>
    <defs></defs>
    <g id="govCMS-Theme" stroke="none" stroke-width="1" fill="none" fill-rule="evenodd">
        <g id="MU_DESKTOP-01-A-HOMEPAGE-v1" transform="translate(-703.000000, -2210.000000)" fill="{{colour}}">
            <g id="Group-3" transform="translate(0.000000, 2122.000000)">
                <g id="Footer" transform="translate(0.000000, 9.000000)">
                    <g id="Connect" transform="translate(0.000000, 41.000000)">
                        <g id="Icons" transform="translate(379.000000, 38.000000)">
                            <g id="Flikr" transform="translate(324.000000, 0.000000)">
                                <path d="M22,44 C9.86895049,44 0,34.1309245 0,22.0002787 C0,9.86907552 9.86895049,0 22,0 C34.1310495,0 44,9.86907552 44,22.0002787 C44,34.1309245 34.1310495,44 22,44 L22,44 Z M22,1.67234673 C10.7909593,1.67234673 1.67232555,10.791096 1.67232555,22.0002787 C1.67232555,33.208904 10.7909593,42.3276533 22,42.3276533 C33.2084833,42.3276533 42.3276745,33.208904 42.3276745,22.0002787 C42.3276745,10.791096 33.2084833,1.67234673 22,1.67234673 L22,1.67234673 Z" id="Google+-Circle"></path>
                                <g id="Flickr" transform="translate(10.000000, 16.000000)">
                                    <path d="M23.9128179,5.32692431 C23.9128179,8.26910435 21.5576717,10.6552707 18.647133,10.6552707 C15.7337821,10.6552707 13.3772299,8.26910435 13.3772299,5.32692431 C13.3772299,2.38616631 15.7337821,0 18.647133,0 C21.5576717,0 23.9128179,2.38616631 23.9128179,5.32692431"></path>
                                    <path d="M10.5341819,5.32692431 C10.5341819,8.26910435 8.17762972,10.6552707 5.26427883,10.6552707 C2.35514611,10.6552707 0,8.26910435 0,5.32692431 C0,2.38616631 2.35514611,0 5.26427883,0 C8.17762972,0 10.5341819,2.38616631 10.5341819,5.32692431"></path>
                                </g>
                            </g>
                        </g>
                    </g>
                </g>
            </g>
        </g>
    </g>
</svg>
