<?xml version="1.0" encoding="UTF-8"?>
<svg width="20px" height="20px" viewBox="0 0 20 20" version="1.1" xmlns="http://www.w3.org/2000/svg" xmlns:xlink="http://www.w3.org/1999/xlink">
    <g id="Symbols" stroke="none" stroke-width="1" fill="none" fill-rule="evenodd">
        <g id="Desktop---Header" transform="translate(-1375.000000, -86.000000)" fill="{{colour}}">
            <g id="Search" transform="translate(1040.000000, 68.000000)">
                <path d="M354.883598,35.4603175 C354.961014,35.5494291 355,35.6496798 355,35.7610693 C355,35.8724589 354.961014,35.9727096 354.883598,36.0618212 L353.061821,37.8830409 C352.972153,37.9610136 352.872459,38 352.761069,38 C352.64968,38 352.549429,37.9610136 352.460317,37.8830409 L347.447786,32.8705096 C346.12225,33.7393484 344.668616,34.1737678 343.086884,34.1737678 C340.858535,34.1737678 338.953773,33.3829017 337.373155,31.8011696 C335.790866,30.2194375 335,28.3146756 335,26.0868839 C335,23.8590922 335.790866,21.9543303 337.373155,20.3725982 C338.953773,18.7908661 340.858535,18 343.086884,18 C345.314676,18 347.219437,18.7908661 348.801727,20.3725982 C350.382902,21.9543303 351.174325,23.8590922 351.174325,26.0868839 C351.174325,27.668616 350.739905,29.1222501 349.871067,30.4477861 L354.883598,35.4603175 Z M337.727273,26.1818182 C337.727273,27.6804408 338.260899,28.9641873 339.328153,30.0330579 C340.395406,31.1019284 341.682712,31.6363636 343.19007,31.6363636 C344.697428,31.6363636 345.981983,31.1052342 347.043735,30.0413223 C348.105488,28.9779614 348.636364,27.6914601 348.636364,26.1818182 C348.636364,24.6721763 348.105488,23.3856749 347.043735,22.322314 C345.981983,21.2589532 344.697428,20.7272727 343.19007,20.7272727 C341.682712,20.7272727 340.395406,21.261708 339.328153,22.3305785 C338.260899,23.399449 337.727273,24.6831956 337.727273,26.1818182 Z" id="Fill-10"></path>
            </g>
        </g>
    </g>
</svg>
