<?xml version="1.0" encoding="UTF-8" standalone="no"?>
<svg width="44px" height="44px" viewBox="0 0 44 44" version="1.1" xmlns="http://www.w3.org/2000/svg" xmlns:xlink="http://www.w3.org/1999/xlink">
    <!-- Generator: Sketch 46.1 (44463) - http://www.bohemiancoding.com/sketch -->
    <title>RSS</title>
    <desc>Created with Sketch.</desc>
    <defs></defs>
    <g id="govCMS-Theme" stroke="none" stroke-width="1" fill="none" fill-rule="evenodd">
        <g id="MU_DESKTOP-01-A-HOMEPAGE-v1" transform="translate(-811.000000, -2210.000000)" fill="{{colour}}">
            <g id="Group-3" transform="translate(0.000000, 2122.000000)">
                <g id="Footer" transform="translate(0.000000, 9.000000)">
                    <g id="Connect" transform="translate(0.000000, 41.000000)">
                        <g id="Icons" transform="translate(379.000000, 38.000000)">
                            <g id="RSS" transform="translate(432.000000, 0.000000)">
                                <path d="M22,44 C9.86895049,44 0,34.1309245 0,22.0002787 C0,9.86907552 9.86895049,0 22,0 C34.1310495,0 44,9.86907552 44,22.0002787 C44,34.1309245 34.1310495,44 22,44 L22,44 Z M22,1.67234673 C10.7909593,1.67234673 1.67232555,10.791096 1.67232555,22.0002787 C1.67232555,33.208904 10.7909593,42.3276533 22,42.3276533 C33.2084833,42.3276533 42.3276745,33.208904 42.3276745,22.0002787 C42.3276745,10.791096 33.2084833,1.67234673 22,1.67234673 L22,1.67234673 Z" id="Google+-Circle"></path>
                                <path d="M10.0002571,30.5714286 C10.0002571,28.678 11.5353835,27.1428571 13.4287918,27.1428571 C15.3222001,27.1428571 16.8573265,28.678 16.8573265,30.5714286 C16.8573265,32.4648571 15.3222001,34 13.4287918,34 C11.5353835,34 10.0002571,32.4648571 10.0002571,30.5714286 Z M34,34 L29.4289061,34 C29.4289061,23.2865714 20.7135709,14.5711429 10.0002571,14.5711429 L10.0002571,10 C23.2335439,10 34,20.7665714 34,34 Z M26.0001143,34 L21.4290204,34 C21.4290204,27.6982857 16.3016468,22.5717143 10,22.5717143 L10,17.9997143 C18.8224769,17.9997143 26.0001143,25.1774286 26.0001143,34 Z"></path>
                            </g>
                        </g>
                    </g>
                </g>
            </g>
        </g>
    </g>
</svg>
