<svg width="20" height="20" viewBox="0 0 20 20" xmlns="http://www.w3.org/2000/svg" xmlns:xlink="http://www.w3.org/1999/xlink"><title>arrow_down</title><desc>Created using Figma</desc><g transform="translate(0 -1)"><clipPath id="a" clip-rule="evenodd"><path d="M0 1h20v20H0V1z" fill="#FFF"/></clipPath><g clip-path="url(#a)"><path d="M0 1h20v20H0V1z" fill="#FFF"/><use xlink:href="#b" transform="translate(5 4)" fill="#006DAE"/></g></g><defs><path id="b" d="M6 0a1 1 0 0 0-2 0h2zM5 14l-.707.707a1 1 0 0 0 1.414 0L5 14zM.707 8.293A1 1 0 0 0-.707 9.707L.707 8.293zm10 1.414a1 1 0 0 0-1.414-1.414l1.414 1.414zM4 0v14h2V0H4zm1.707 13.293l-5-5-1.414 1.414 5 5 1.414-1.414zm0 1.414l5-5-1.414-1.414-5 5 1.414 1.414z"/></defs></svg>