<svg width="20" height="20" viewBox="0 0 20 20" xmlns="http://www.w3.org/2000/svg"><path d="M19.884 17.46a.447.447 0 0 1 0 .602l-1.822 1.821a.446.446 0 0 1-.602 0l-5.012-5.012a7.793 7.793 0 0 1-4.361 1.303c-2.228 0-4.133-.791-5.714-2.373C.791 12.22 0 10.315 0 8.087s.79-4.133 2.373-5.714C3.953.79 5.86 0 8.087 0s4.132.79 5.715 2.373c1.58 1.581 2.372 3.486 2.372 5.714a7.793 7.793 0 0 1-1.303 4.36l5.013 5.013zM2.727 8.182c0 1.498.534 2.782 1.601 3.851s2.355 1.603 3.862 1.603c1.507 0 2.792-.53 3.854-1.595 1.061-1.063 1.592-2.35 1.592-3.86 0-1.509-.53-2.795-1.592-3.859C10.982 3.26 9.697 2.727 8.19 2.727c-1.507 0-2.795.535-3.862 1.604-1.067 1.068-1.6 2.352-1.6 3.85z" fill="#006DAE" fill-rule="evenodd"/></svg>