<svg width="44" height="44" viewBox="0 0 44 44" xmlns="http://www.w3.org/2000/svg"><title>Facebook</title><g fill="#FFF" fill-rule="evenodd"><path d="M22 44C9.869 44 0 34.13 0 22S9.869 0 22 0s22 9.87 22 22-9.869 22-22 22zm0-42.328C10.791 1.672 1.672 10.792 1.672 22c0 11.209 9.119 20.328 20.328 20.328 11.208 0 20.328-9.12 20.328-20.328 0-11.209-9.12-20.328-20.328-20.328z"/><path d="M33 31.786c0 .67-.544 1.214-1.214 1.214H26.18v-8.52h2.86l.428-3.32H26.18v-2.12c0-.96.267-1.616 1.645-1.616l1.759-.001v-2.97c-.304-.04-1.348-.13-2.562-.13-2.535 0-4.27 1.547-4.27 4.388v2.45h-2.868v3.32h2.867V33H12.214c-.67 0-1.214-.544-1.214-1.214V12.214c0-.67.544-1.214 1.214-1.214h19.572c.67 0 1.214.544 1.214 1.214v19.572"/></g></svg>