<svg width="44" height="44" viewBox="0 0 44 44" xmlns="http://www.w3.org/2000/svg"><title>Vimeo</title><g fill="#FFF" fill-rule="evenodd"><path d="M22 44C9.869 44 0 34.13 0 22S9.869 0 22 0s22 9.87 22 22-9.869 22-22 22zm0-42.328C10.791 1.672 1.672 10.792 1.672 22c0 11.209 9.119 20.328 20.328 20.328 11.208 0 20.328-9.12 20.328-20.328 0-11.209-9.12-20.328-20.328-20.328z"/><path d="M33.988 16.99c-.104 2.31-1.739 5.468-4.891 9.476-3.263 4.19-6.027 6.284-8.286 6.284-1.397 0-2.581-1.274-3.548-3.83-.648-2.345-1.291-4.69-1.937-7.029-.72-2.557-1.49-3.836-2.315-3.836-.179 0-.804.373-1.882 1.12L10 17.736a322.1 322.1 0 0 0 3.498-3.085c1.575-1.35 2.759-2.058 3.55-2.132 1.862-.178 3.01 1.083 3.444 3.78.461 2.913.786 4.723.965 5.432.54 2.414 1.129 3.618 1.775 3.618.501 0 1.255-.78 2.26-2.34 1.004-1.562 1.539-2.75 1.612-3.568.144-1.35-.393-2.02-1.613-2.02-.574 0-1.167.12-1.775.371 1.186-3.798 3.443-5.644 6.78-5.537 2.47.069 3.637 1.65 3.492 4.736"/></g></svg>