<svg width="44" height="44" viewBox="0 0 44 44" xmlns="http://www.w3.org/2000/svg"><title>LinkedIn</title><g fill="#FFF" fill-rule="evenodd"><path d="M22 44C9.869 44 0 34.13 0 22S9.869 0 22 0s22 9.87 22 22-9.869 22-22 22zm0-42.328C10.791 1.672 1.672 10.792 1.672 22c0 11.209 9.119 20.328 20.328 20.328 11.208 0 20.328-9.12 20.328-20.328 0-11.209-9.12-20.328-20.328-20.328z"/><path d="M34 32.91h-5.304v-7.67c0-2.008-.83-3.379-2.655-3.379-1.395 0-2.171.925-2.533 1.816-.135.32-.114.766-.114 1.211v8.021H18.14s.068-13.587 0-14.822h5.255v2.327c.31-1.017 1.99-2.469 4.67-2.469 3.324 0 5.936 2.132 5.936 6.723v8.241zM12.825 16.233h-.034c-1.693 0-2.791-1.133-2.791-2.57 0-1.464 1.13-2.573 2.857-2.573 1.726 0 2.787 1.106 2.821 2.57 0 1.435-1.095 2.573-2.853 2.573zm-2.22 1.853h4.678V32.91h-4.678V18.087z"/></g></svg>