<svg width="44" height="44" viewBox="0 0 44 44" xmlns="http://www.w3.org/2000/svg"><title>YouTube</title><g fill="#FFF" fill-rule="evenodd"><path d="M22 44C9.869 44 0 34.13 0 22S9.869 0 22 0s22 9.87 22 22-9.869 22-22 22zm0-42.328C10.791 1.672 1.672 10.792 1.672 22c0 11.209 9.119 20.328 20.328 20.328 11.208 0 20.328-9.12 20.328-20.328 0-11.209-9.12-20.328-20.328-20.328z"/><path d="M19.522 24.635v-6.791l6.484 3.407-6.484 3.384zm14.238-7.968s-.235-1.665-.954-2.399c-.913-.963-1.936-.967-2.404-1.023C27.042 13 22.005 13 22.005 13h-.01s-5.038 0-8.397.245c-.469.056-1.491.06-2.405 1.023-.719.734-.953 2.4-.953 2.4s-.24 1.955-.24 3.91v1.835c0 1.956.24 3.912.24 3.912s.234 1.665.953 2.399c.914.963 2.113.932 2.647 1.033C15.76 29.943 22 30 22 30s5.043-.008 8.401-.252c.47-.057 1.492-.061 2.405-1.024.72-.734.954-2.4.954-2.4s.24-1.955.24-3.911v-1.834c0-1.956-.24-3.912-.24-3.912z"/></g></svg>