<svg width="44" height="44" viewBox="0 0 44 44" xmlns="http://www.w3.org/2000/svg"><title>RSS</title><g fill="#FFF" fill-rule="evenodd"><path d="M22 44C9.869 44 0 34.13 0 22S9.869 0 22 0s22 9.87 22 22-9.869 22-22 22zm0-42.328C10.791 1.672 1.672 10.792 1.672 22c0 11.209 9.119 20.328 20.328 20.328 11.208 0 20.328-9.12 20.328-20.328 0-11.209-9.12-20.328-20.328-20.328z"/><path d="M10 30.571a3.429 3.429 0 1 1 6.858 0 3.429 3.429 0 0 1-6.858 0zM34 34h-4.571c0-10.713-8.715-19.429-19.429-19.429V10c13.234 0 24 10.767 24 24zm-8 0H21.43c0-6.302-5.127-11.428-11.429-11.428V18c8.822 0 16 7.177 16 16z"/></g></svg>